<?xml version="1.0" encoding="UTF-8" standalone="no"?>
<svg width="256px" height="256px" viewBox="0 0 256 256" version="1.1" xmlns="http://www.w3.org/2000/svg" xmlns:xlink="http://www.w3.org/1999/xlink">
    <!-- Generator: Sketch 3.7.2 (28276) - http://www.bohemiancoding.com/sketch -->
    <title>advantages</title>
    <desc>Created with Sketch.</desc>
    <defs></defs>
    <g id="Page-1" stroke="none" stroke-width="1" fill="none" fill-rule="evenodd">
        <g id="GF_frontend_candidate_wide" transform="translate(-800.000000, -1239.000000)">
            <g id="Group-5" transform="translate(130.000000, 1239.000000)">
                <g id="advantages" transform="translate(670.000000, 0.000000)">
                    <path d="M256,128 C256,198.691429 198.688,256 128,256 C57.304,256 0,198.691429 0,128 C0,57.304 57.304,0 128,0 C198.688,0 256,57.304 256,128" id="Fill-1-Copy-6" fill="#43B1E3"></path>
                    <g id="Imported-Layers" transform="translate(11.000000, 33.000000)">
                        <path d="M186.127424,100.588235 C186.127424,139.475018 154.596432,171 115.700831,171 C76.8058587,171 45.2742382,139.475018 45.2742382,100.588235 C45.2742382,61.7008235 76.8058587,30.1764706 115.700831,30.1764706 C154.596432,30.1764706 186.127424,61.7008235 186.127424,100.588235" id="Fill-1" fill="#0685BA"></path>
                        <polygon id="Fill-2" fill="#FFFFFF" points="114.443213 10.0588235 117.587258 10.0588235 117.587258 100.588235 114.443213 100.588235"></polygon>
                        <polygon id="Fill-3" fill="#FFFFFF" points="15.7202216 99.0165441 111.299169 99.0165441 111.299169 102.159926 15.7202216 102.159926"></polygon>
                        <polyline id="Fill-4" fill="#FFFFFF" points="114.684047 101.786493 49.2879252 46.4642206 51.3214931 44.0651912 116.718244 99.3899779 114.684047 101.786493"></polyline>
                        <polyline id="Fill-5" fill="#FFFFFF" points="116.985488 101.494158 114.416175 99.6823125 161.891244 32.4139301 164.460557 34.2257757 116.985488 101.494158"></polyline>
                        <polygon id="Fill-6" fill="#FFFFFF" points="115.700831 99.0165441 216.939058 99.0165441 216.939058 102.159926 115.700831 102.159926"></polygon>
                        <polyline id="Fill-7" fill="#FFFFFF" points="180.202787 147.144871 114.806665 101.880165 116.594997 99.2963051 181.991119 144.561011 180.202787 147.144871"></polyline>
                        <polyline id="Fill-8" fill="#FFFFFF" points="42.6829169 129.721103 41.5774709 126.778897 115.148108 99.1171324 116.253554 102.059338 42.6829169 129.721103"></polyline>
                        <path d="M166.319945,100.588235 C166.319945,128.537305 143.655787,151.196691 115.700831,151.196691 C87.7458753,151.196691 65.0817175,128.537305 65.0817175,100.588235 C65.0817175,72.6391654 87.7458753,49.9797794 115.700831,49.9797794 C143.655787,49.9797794 166.319945,72.6391654 166.319945,100.588235" id="Fill-9" fill="#FFC64A"></path>
                        <path d="M135.822715,100.588235 C135.822715,111.698206 126.813141,120.705882 115.700831,120.705882 C104.588521,120.705882 95.5789474,111.698206 95.5789474,100.588235 C95.5789474,89.4782647 104.588521,80.4705882 115.700831,80.4705882 C126.813141,80.4705882 135.822715,89.4782647 135.822715,100.588235" id="Fill-10" fill="#404040"></path>
                        <path d="M128.277008,100.588235 C128.277008,107.533224 122.644767,113.161765 115.700831,113.161765 C108.75438,113.161765 103.124654,107.533224 103.124654,100.588235 C103.124654,93.6432463 108.75438,88.0147059 115.700831,88.0147059 C122.644767,88.0147059 128.277008,93.6432463 128.277008,100.588235" id="Fill-11" fill="#FBD764"></path>
                        <path d="M135.665512,123.220588 C134.513535,123.220588 133.482288,123.738618 132.791856,124.551496 C132.521468,122.732107 130.959507,121.334559 129.063019,121.334559 C127.911042,121.334559 126.879795,121.852588 126.189363,122.665467 C125.918975,120.846077 124.357014,119.448529 122.460526,119.448529 C121.308548,119.448529 120.277302,119.966559 119.58687,120.779438 L119.58687,100.033114 C119.316482,98.2137243 117.754521,96.8161765 115.858033,96.8161765 C113.775418,96.8161765 112.08518,98.5060588 112.08518,100.588235 L112.08518,134.546824 C108.931704,132.174199 105.01108,130.764706 100.76662,130.764706 C98.6840055,130.764706 96.9937673,132.454588 96.9937673,134.536765 C96.9937673,136.618941 98.6840055,138.308824 100.76662,138.308824 C107.008177,138.308824 112.08518,146.685309 112.08518,152.925551 L112.08518,157.169118 L139.438366,157.169118 L139.438366,126.992647 C139.438366,124.910471 137.748756,123.220588 135.665512,123.220588" id="Fill-12" fill="#FFFFFF"></path>
                        <path d="M178.684842,33.3198529 C178.684842,41.8843125 171.743421,48.8267868 163.1759,48.8267868 C154.60838,48.8267868 147.666958,41.8843125 147.666958,33.3198529 C147.666958,24.7553934 154.60838,17.8129191 163.1759,17.8129191 C171.743421,17.8129191 178.684842,24.7553934 178.684842,33.3198529" id="Fill-13" fill="#404040"></path>
                        <path d="M173.236842,33.3198529 C173.236842,38.8748382 168.732055,43.3786765 163.1759,43.3786765 C157.619745,43.3786765 153.114958,38.8748382 153.114958,33.3198529 C153.114958,27.7648676 157.619745,23.2610294 163.1759,23.2610294 C168.732055,23.2610294 173.236842,27.7648676 173.236842,33.3198529" id="Fill-14" fill="#FFFFFF"></path>
                        <path d="M31.2291634,100.588235 C31.2291634,109.153952 24.2877424,116.093912 15.7202216,116.093912 C7.15270083,116.093912 0.211279778,109.153952 0.211279778,100.588235 C0.211279778,92.0225184 7.15270083,85.0825588 15.7202216,85.0825588 C24.2877424,85.0825588 31.2291634,92.0225184 31.2291634,100.588235" id="Fill-15" fill="#404040"></path>
                        <path d="M25.7811634,100.588235 C25.7811634,106.143221 21.2763767,110.647059 15.7202216,110.647059 C10.1640665,110.647059 5.65927978,106.143221 5.65927978,100.588235 C5.65927978,95.03325 10.1640665,90.5294118 15.7202216,90.5294118 C21.2763767,90.5294118 25.7811634,95.03325 25.7811634,100.588235" id="Fill-16" fill="#FFFFFF"></path>
                        <path d="M60.365651,45.2647059 C60.365651,50.8196912 55.8608643,55.3235294 50.3047091,55.3235294 C44.748554,55.3235294 40.2437673,50.8196912 40.2437673,45.2647059 C40.2437673,39.7097206 44.748554,35.2058824 50.3047091,35.2058824 C55.8608643,35.2058824 60.365651,39.7097206 60.365651,45.2647059" id="Fill-17" fill="#404040"></path>
                        <path d="M227,100.588235 C227,106.143221 222.495213,110.647059 216.939058,110.647059 C211.383532,110.647059 206.878116,106.143221 206.878116,100.588235 C206.878116,95.03325 211.383532,90.5294118 216.939058,90.5294118 C222.495213,90.5294118 227,95.03325 227,100.588235" id="Fill-18" fill="#FFC64A"></path>
                        <path d="M55.3351801,127.306985 C55.3351801,132.861971 50.8303934,137.365809 45.2742382,137.365809 C39.7180831,137.365809 35.2132964,132.861971 35.2132964,127.306985 C35.2132964,121.752 39.7180831,117.248162 45.2742382,117.248162 C50.8303934,117.248162 55.3351801,121.752 55.3351801,127.306985" id="Fill-19" fill="#FFC64A"></path>
                        <path d="M176.695291,60.3529412 C176.695291,63.1304338 174.442898,65.3823529 171.66482,65.3823529 C168.886742,65.3823529 166.634349,63.1304338 166.634349,60.3529412 C166.634349,57.5754485 168.886742,55.3235294 171.66482,55.3235294 C174.442898,55.3235294 176.695291,57.5754485 176.695291,60.3529412" id="Fill-20" fill="#404040"></path>
                        <path d="M71.0554017,150.882353 C71.0554017,153.659846 68.8030083,155.911765 66.0249307,155.911765 C63.2468532,155.911765 60.9944598,153.659846 60.9944598,150.882353 C60.9944598,148.10486 63.2468532,145.852941 66.0249307,145.852941 C68.8030083,145.852941 71.0554017,148.10486 71.0554017,150.882353" id="Fill-21" fill="#FFFFFF"></path>
                        <path d="M189.173374,60.3529412 C189.173374,62.0352794 187.810116,63.3995074 186.127424,63.3995074 C184.44536,63.3995074 183.081474,62.0352794 183.081474,60.3529412 C183.081474,58.6706029 184.44536,57.306375 186.127424,57.306375 C187.810116,57.306375 189.173374,58.6706029 189.173374,60.3529412" id="Fill-22" fill="#FFFFFF"></path>
                        <path d="M58.3811302,70.4117647 C58.3811302,72.0941029 57.0178726,73.4583309 55.3351801,73.4583309 C53.6524875,73.4583309 52.2892299,72.0941029 52.2892299,70.4117647 C52.2892299,68.7294265 53.6524875,67.3651985 55.3351801,67.3651985 C57.0178726,67.3651985 58.3811302,68.7294265 58.3811302,70.4117647" id="Fill-23" fill="#FFFFFF"></path>
                        <path d="M89.2908587,37.0919118 C89.2908587,39.1740882 87.6006205,40.8639706 85.5180055,40.8639706 C83.4353906,40.8639706 81.7451524,39.1740882 81.7451524,37.0919118 C81.7451524,35.0097353 83.4353906,33.3198529 85.5180055,33.3198529 C87.6006205,33.3198529 89.2908587,35.0097353 89.2908587,37.0919118" id="Fill-24" fill="#404040"></path>
                        <path d="M170.407202,160.941176 C170.407202,163.023353 168.716964,164.713235 166.634349,164.713235 C164.551734,164.713235 162.861496,163.023353 162.861496,160.941176 C162.861496,158.858371 164.551734,157.169118 166.634349,157.169118 C168.716964,157.169118 170.407202,158.858371 170.407202,160.941176" id="Fill-25" fill="#FFFFFF"></path>
                        <path d="M58.7936288,160.941176 C58.7936288,162.851724 57.243615,164.398897 55.3351801,164.398897 C53.4267452,164.398897 51.8767313,162.851724 51.8767313,160.941176 C51.8767313,159.030629 53.4267452,157.483456 55.3351801,157.483456 C57.243615,157.483456 58.7936288,159.030629 58.7936288,160.941176" id="Fill-26" fill="#404040"></path>
                        <path d="M125.761773,10.0588235 C125.761773,15.6138088 121.256986,20.1176471 115.700831,20.1176471 C110.144676,20.1176471 105.639889,15.6138088 105.639889,10.0588235 C105.639889,4.50383824 110.144676,0 115.700831,0 C121.256986,0 125.761773,4.50383824 125.761773,10.0588235" id="Fill-27" fill="#FFC64A"></path>
                        <polygon id="Fill-28" fill="#404040" points="112.08518 157.169118 139.438366 157.169118 139.438366 171 112.08518 171"></polygon>
                        <polygon id="Fill-29" fill="#545454" points="112.08518 157.169118 125.761773 157.169118 125.761773 171 112.08518 171"></polygon>
                        <path d="M152.228338,100.588235 L149.084294,100.588235 C149.084294,82.184989 134.108582,67.2118015 115.700831,67.2118015 L115.700831,64.0684191 C135.842208,64.0684191 152.228338,80.4510993 152.228338,100.588235" id="Fill-30" fill="#FFFFFF"></path>
                        <path d="M134.781407,81.5116765 C124.260806,70.9939191 107.143371,70.9939191 96.6202548,81.5116765 L94.3974155,79.2893051 C106.143565,67.545 125.258726,67.545 137.004247,79.2893051 L134.781407,81.5116765" id="Fill-31" fill="#FFFFFF"></path>
                        <path d="M88.3872604,127.896055 C81.0918199,120.602779 77.0756177,110.904816 77.0756177,100.588235 C77.0756177,90.2741691 81.0918199,80.5736912 88.3872604,73.2810441 L90.612615,75.5040441 C83.9120277,82.2044779 80.2202909,91.1115662 80.2202909,100.588235 C80.2202909,110.064904 83.9120277,118.971993 90.612615,125.671169 L88.3872604,127.896055" id="Fill-32" fill="#FFFFFF"></path>
                        <path d="M120.731302,10.0588235 C120.731302,12.8363162 118.478909,15.0882353 115.700831,15.0882353 C112.922753,15.0882353 110.67036,12.8363162 110.67036,10.0588235 C110.67036,7.28133088 112.922753,5.02941176 115.700831,5.02941176 C118.478909,5.02941176 120.731302,7.28133088 120.731302,10.0588235" id="Fill-33" fill="#FFFFFF"></path>
                        <path d="M221.34072,100.588235 C221.34072,103.365728 219.088956,105.617647 216.310249,105.617647 C213.532801,105.617647 211.279778,103.365728 211.279778,100.588235 C211.279778,97.8107426 213.532801,95.5588235 216.310249,95.5588235 C219.088956,95.5588235 221.34072,97.8107426 221.34072,100.588235" id="Fill-34" fill="#FFFFFF"></path>
                        <path d="M55.3351801,45.2647059 C55.3351801,48.0421985 53.0827867,50.2941176 50.3047091,50.2941176 C47.5266316,50.2941176 45.2742382,48.0421985 45.2742382,45.2647059 C45.2742382,42.4872132 47.5266316,40.2352941 50.3047091,40.2352941 C53.0827867,40.2352941 55.3351801,42.4872132 55.3351801,45.2647059" id="Fill-35" fill="#FFFFFF"></path>
                        <path d="M191.157895,145.852941 C191.157895,151.407926 186.653108,155.911765 181.096953,155.911765 C175.540798,155.911765 171.036011,151.407926 171.036011,145.852941 C171.036011,140.297956 175.540798,135.794118 181.096953,135.794118 C186.653108,135.794118 191.157895,140.297956 191.157895,145.852941" id="Fill-36" fill="#404040"></path>
                        <path d="M186.127424,145.852941 C186.127424,148.630434 183.877546,150.882353 181.096953,150.882353 C178.318875,150.882353 176.066482,148.630434 176.066482,145.852941 C176.066482,143.075449 178.318875,140.823529 181.096953,140.823529 C183.877546,140.823529 186.127424,143.075449 186.127424,145.852941" id="Fill-37" fill="#FFFFFF"></path>
                        <path d="M50.3047091,127.306985 C50.3047091,130.084478 48.0523158,132.336397 45.2742382,132.336397 C42.4961607,132.336397 40.2437673,130.084478 40.2437673,127.306985 C40.2437673,124.529493 42.4961607,122.277574 45.2742382,122.277574 C48.0523158,122.277574 50.3047091,124.529493 50.3047091,127.306985" id="Fill-38" fill="#FFFFFF"></path>
                    </g>
                </g>
            </g>
        </g>
    </g>
</svg>