<?xml version="1.0" encoding="UTF-8" standalone="no"?>
<svg width="22px" height="17px" viewBox="0 0 22 17" version="1.1" xmlns="http://www.w3.org/2000/svg" xmlns:xlink="http://www.w3.org/1999/xlink">
    <!-- Generator: Sketch 3.8.1 (29687) - http://www.bohemiancoding.com/sketch -->
    <title>checkmark</title>
    <desc>Created with Sketch.</desc>
    <defs></defs>
    <g id="Page-1" stroke="none" stroke-width="1" fill="none" fill-rule="evenodd">
        <g id="GF_frontend_candidate_narrow" transform="translate(-102.000000, -2929.000000)" fill="#02BE9C">
            <g id="Group-5" transform="translate(50.000000, 2513.000000)">
                <g id="Group" transform="translate(52.000000, 414.000000)">
                    <path d="M20.1849768,5.68861757 C20.1849768,5.68861757 8.45411919,17.056816 8.26981448,17.2398577 C7.72102655,17.7693713 6.83251278,17.7693713 6.28372486,17.2398577 C6.28372486,17.2398577 1.78751504,12.8795424 1.77376096,12.866468 C1.2676107,12.3304172 1.28136478,11.5001923 1.81571091,10.9772159 C2.36381113,10.4477024 3.25301261,10.4477024 3.80180053,10.9772159 L7.27608196,14.3504134 L18.1988872,3.76014228 C18.7469874,3.23062873 19.6361889,3.23062873 20.1849768,3.76014228 C20.733077,4.28965584 20.733077,5.15256681 20.1849768,5.68861757 L20.1849768,5.68861757 Z M21.1773339,2.79917324 C20.0804458,1.73360892 18.3027305,1.73360892 17.2058424,2.79917324 L7.27608196,12.4219381 L4.79415764,10.0162469 C3.6972695,8.95721977 1.91886654,8.95721977 0.822666104,10.0162469 C-0.274222035,11.0818112 -0.274222035,12.8076331 0.822666104,13.8666603 L5.29068005,18.2008268 C6.38756818,19.2663911 8.16528344,19.2663911 9.26217158,18.2008268 L21.1773339,6.64958662 C22.274222,5.5840223 22.274222,3.85820035 21.1773339,2.79917324 L21.1773339,2.79917324 Z" id="checkmark"></path>
                </g>
            </g>
        </g>
    </g>
</svg>