<?xml version="1.0" encoding="UTF-8" standalone="no"?>
<svg width="60px" height="60px" viewBox="0 0 60 60" version="1.1" xmlns="http://www.w3.org/2000/svg" xmlns:xlink="http://www.w3.org/1999/xlink">
    <!-- Generator: Sketch 3.7.2 (28276) - http://www.bohemiancoding.com/sketch -->
    <title>icon_third_party</title>
    <desc>Created with Sketch.</desc>
    <defs></defs>
    <g id="Page-1" stroke="none" stroke-width="1" fill="none" fill-rule="evenodd">
        <g id="icon_third_party" fill="#43B1E3">
            <g transform="translate(-1.000000, 6.000000)">
                <path d="M57.999,47.912 L3.999,47.912 C2.345,47.912 0.999,46.567 0.999,44.912 L0.999,3 C0.999,1.346 2.345,0 3.999,0 L57.999,0 C59.653,0 60.999,1.346 60.999,3 L60.999,44.912 C60.999,46.567 59.653,47.912 57.999,47.912 L57.999,47.912 Z M3.999,2 C3.448,2 2.999,2.448 2.999,3 L2.999,44.912 C2.999,45.464 3.448,45.912 3.999,45.912 L57.999,45.912 C58.55,45.912 58.999,45.464 58.999,44.912 L58.999,3 C58.999,2.448 58.55,2 57.999,2 L3.999,2 L3.999,2 Z" id="Fill-1"></path>
                <path d="M59.999,10 L1.999,10 C1.447,10 0.999,9.553 0.999,9 C0.999,8.447 1.447,8 1.999,8 L59.999,8 C60.552,8 60.999,8.447 60.999,9 C60.999,9.553 60.552,10 59.999,10" id="Fill-2"></path>
                <path d="M40.999,41 L20.999,41 C20.447,41 19.999,40.553 19.999,40 L19.999,27 C19.999,26.447 20.447,26 20.999,26 L40.999,26 C41.551,26 41.999,26.447 41.999,27 L41.999,40 C41.999,40.553 41.551,41 40.999,41 L40.999,41 Z M21.999,39 L39.999,39 L39.999,28 L21.999,28 L21.999,39 Z" id="Fill-3"></path>
                <path d="M36.999,28 C36.447,28 35.999,27.553 35.999,27 L35.999,22.362 C35.999,19.405 33.756,17 30.999,17 C28.242,17 25.999,19.405 25.999,22.362 L25.999,27 C25.999,27.553 25.551,28 24.999,28 C24.447,28 23.999,27.553 23.999,27 L23.999,22.362 C23.999,18.303 27.139,15 30.999,15 C34.859,15 37.999,18.303 37.999,22.362 L37.999,27 C37.999,27.553 37.551,28 36.999,28" id="Fill-4"></path>
                <path d="M6.029,6 C5.477,6 5.024,5.553 5.024,5 C5.024,4.447 5.467,4 6.019,4 L6.029,4 C6.581,4 7.029,4.447 7.029,5 C7.029,5.553 6.581,6 6.029,6" id="Fill-5"></path>
                <path d="M9.029,6 C8.477,6 8.024,5.553 8.024,5 C8.024,4.447 8.467,4 9.019,4 L9.029,4 C9.581,4 10.029,4.447 10.029,5 C10.029,5.553 9.581,6 9.029,6" id="Fill-6"></path>
                <path d="M12.029,6 C11.477,6 11.024,5.553 11.024,5 C11.024,4.447 11.467,4 12.019,4 L12.029,4 C12.581,4 13.029,4.447 13.029,5 C13.029,5.553 12.581,6 12.029,6" id="Fill-7"></path>
            </g>
        </g>
    </g>
</svg>