<?xml version="1.0" encoding="UTF-8" standalone="no"?>
<svg width="60px" height="60px" viewBox="0 0 60 60" version="1.1" xmlns="http://www.w3.org/2000/svg" xmlns:xlink="http://www.w3.org/1999/xlink">
    <!-- Generator: Sketch 3.7.2 (28276) - http://www.bohemiancoding.com/sketch -->
    <title>icon_vulnerabilities</title>
    <desc>Created with Sketch.</desc>
    <defs></defs>
    <g id="Page-1" stroke="none" stroke-width="1" fill="none" fill-rule="evenodd">
        <g id="icon_vulnerabilities" fill="#43B1E3">
            <g transform="translate(2.000000, 0.000000)">
                <path d="M55,12 C54.448,12 54,11.553 54,11 C54,6.653 43.553,2 28,2 C12.447,2 2,6.653 2,11 C2,11.553 1.552,12 1,12 C0.448,12 0,11.553 0,11 C0,4.832 12.299,0 28,0 C43.701,0 56,4.832 56,11 C56,11.553 55.552,12 55,12" id="Fill-1"></path>
                <path d="M28,60 C12.299,60 0,55.168 0,49 C0,48.447 0.448,48 1,48 C1.552,48 2,48.447 2,49 C2,53.347 12.447,58 28,58 C28.552,58 29,58.448 29,59 C29,59.553 28.552,60 28,60" id="Fill-2"></path>
                <path d="M28,47 C12.299,47 0,42.168 0,36 C0,35.447 0.448,35 1,35 C1.552,35 2,35.447 2,36 C2,40.347 12.447,45 28,45 C28.552,45 29,45.447 29,46 C29,46.553 28.552,47 28,47" id="Fill-3"></path>
                <path d="M28,34 C12.299,34 0,29.168 0,23 C0,22.447 0.448,22 1,22 C1.552,22 2,22.447 2,23 C2,27.347 12.447,32 28,32 C43.553,32 54,27.347 54,23 C54,22.447 54.448,22 55,22 C55.552,22 56,22.447 56,23 C56,29.168 43.701,34 28,34" id="Fill-4"></path>
                <path d="M1,49.642 C0.448,49.642 0,49.195 0,48.643 L0,11.357 C0,10.805 0.448,10.357 1,10.357 C1.552,10.357 2,10.805 2,11.357 L2,48.643 C2,49.195 1.552,49.642 1,49.642" id="Fill-5"></path>
                <path d="M55,37 C54.448,37 54,36.553 54,36 L54,11.357 C54,10.805 54.448,10.357 55,10.357 C55.552,10.357 56,10.805 56,11.357 L56,36 C56,36.553 55.552,37 55,37" id="Fill-6"></path>
                <path d="M28,22 C12.299,22 0,17.168 0,11 C0,10.447 0.448,10 1,10 C1.552,10 2,10.447 2,11 C2,15.347 12.447,20 28,20 C43.553,20 54,15.347 54,11 C54,10.447 54.448,10 55,10 C55.552,10 56,10.447 56,11 C56,17.168 43.701,22 28,22" id="Fill-7"></path>
                <path d="M42.997,60 C42.539,60 42.125,59.683 42.022,59.217 C41.902,58.677 42.243,58.144 42.782,58.023 C43.065,57.957 49.742,56.25 49.993,44.677 C46.107,43.047 42.498,39.892 42.337,39.752 C41.923,39.386 41.883,38.754 42.247,38.34 C42.612,37.925 43.244,37.885 43.658,38.25 C43.697,38.283 47.574,41.668 51.347,43.063 C51.739,43.207 52,43.581 52,44 C52,57.87 43.573,59.896 43.214,59.977 C43.142,59.992 43.069,60 42.997,60" id="Fill-8"></path>
                <path d="M42.999,60 C42.927,60 42.855,59.992 42.782,59.977 C42.423,59.896 34,57.87 34,44 C34,43.581 34.261,43.207 34.653,43.063 C38.433,41.664 42.299,38.283 42.337,38.25 C42.752,37.885 43.383,37.925 43.749,38.339 C44.114,38.754 44.073,39.386 43.659,39.752 C43.499,39.892 39.891,43.046 36.007,44.677 C36.258,56.25 42.932,57.957 43.221,58.026 C43.756,58.151 44.092,58.687 43.97,59.223 C43.864,59.685 43.454,60 42.999,60" id="Fill-9"></path>
            </g>
        </g>
    </g>
</svg>