<?xml version="1.0" encoding="UTF-8" standalone="no"?>
<svg width="60px" height="60px" viewBox="0 0 60 60" version="1.1" xmlns="http://www.w3.org/2000/svg" xmlns:xlink="http://www.w3.org/1999/xlink">
    <!-- Generator: Sketch 3.7.2 (28276) - http://www.bohemiancoding.com/sketch -->
    <title>icon_infrastructure</title>
    <desc>Created with Sketch.</desc>
    <defs></defs>
    <g id="Page-1" stroke="none" stroke-width="1" fill="none" fill-rule="evenodd">
        <g id="icon_infrastructure" fill="#43B1E3">
            <g transform="translate(0.000000, 6.000000)">
                <path d="M29,44.509 L12.6,44.509 C5.652,44.509 0,38.923 0,32.055 C0,26.953 3.119,22.422 7.844,20.53 C7.771,19.901 7.734,19.294 7.734,18.691 C7.734,8.666 15.988,0.51 26.133,0.51 C33.671,0.51 40.442,5.084 43.22,11.967 C43.324,11.965 43.429,11.963 43.533,11.963 C52.613,11.963 60,19.385 60,28.51 C60,29.062 59.552,29.509 59,29.509 C58.448,29.509 58,29.062 58,28.51 C58,20.488 51.51,13.963 43.533,13.963 C43.243,13.963 42.951,13.98 42.662,14.012 C42.2,14.071 41.762,13.793 41.606,13.354 C39.304,6.868 33.085,2.509 26.133,2.509 C17.091,2.509 9.734,9.768 9.734,18.691 C9.734,19.444 9.8,20.21 9.934,21.032 C10.014,21.518 9.726,21.991 9.257,22.144 C4.917,23.559 2,27.541 2,32.055 C2,37.819 6.755,42.51 12.6,42.51 L29,42.51 C29.552,42.51 30,42.957 30,43.51 C30,44.062 29.552,44.509 29,44.509" id="Fill-1"></path>
                <path d="M55,48.51 L37,48.51 C36.448,48.51 36,48.062 36,47.509 L36,35.509 C36,34.957 36.448,34.51 37,34.51 L55,34.51 C55.552,34.51 56,34.957 56,35.509 L56,47.509 C56,48.062 55.552,48.51 55,48.51 L55,48.51 Z M38,46.51 L54,46.51 L54,36.51 L38,36.51 L38,46.51 Z" id="Fill-2"></path>
                <path d="M41,36.369 C40.448,36.369 40,35.922 40,35.369 L40,32.509 C40,29.201 42.691,26.509 46,26.509 C49.309,26.509 52,29.201 52,32.509 L52,35 C52,35.552 51.552,36 51,36 C50.448,36 50,35.552 50,35 L50,32.509 C50,30.303 48.206,28.51 46,28.51 C43.794,28.51 42,30.303 42,32.509 L42,35.369 C42,35.922 41.552,36.369 41,36.369" id="Fill-3"></path>
            </g>
        </g>
    </g>
</svg>