<?xml version="1.0" encoding="UTF-8" standalone="no"?>
<svg width="198px" height="29px" viewBox="0 0 198 29" version="1.1" xmlns="http://www.w3.org/2000/svg" xmlns:xlink="http://www.w3.org/1999/xlink">
    <!-- Generator: Sketch 3.7.2 (28276) - http://www.bohemiancoding.com/sketch -->
    <title>logo</title>
    <desc>Created with Sketch.</desc>
    <defs></defs>
    <g id="Page-1" stroke="none" stroke-width="1" fill="none" fill-rule="evenodd">
        <g id="GF_frontend_candidate_wide" transform="translate(-137.000000, -31.000000)">
            <g id="Group-7" transform="translate(137.000000, 26.000000)">
                <g id="logo" transform="translate(0.000000, 5.000000)">
                    <g id="logotype">
                        <path d="M60.9921875,21.296875 L60.9921875,18.484375 C62.6718834,19.1093781 64.5703019,19.421875 66.6875,19.421875 C69.2578254,19.421875 70.5429688,18.5625086 70.5429688,16.84375 C70.5429688,15.5937437 69.7539141,14.96875 68.1757812,14.96875 L65.3164062,14.96875 C61.8867016,14.96875 60.171875,13.4062656 60.171875,10.28125 C60.171875,6.84373281 62.6132568,5.125 67.4960938,5.125 C69.3711031,5.125 71.1484291,5.39843477 72.828125,5.9453125 L72.828125,8.7578125 C71.1484291,8.13280938 69.3711031,7.8203125 67.4960938,7.8203125 C64.6835797,7.8203125 63.2773438,8.6406168 63.2773438,10.28125 C63.2773438,11.5312562 63.9570245,12.15625 65.3164062,12.15625 L68.1757812,12.15625 C71.824237,12.15625 73.6484375,13.7187344 73.6484375,16.84375 C73.6484375,20.3593926 71.3281482,22.1171875 66.6875,22.1171875 C64.5703019,22.1171875 62.6718834,21.8437527 60.9921875,21.296875 L60.9921875,21.296875 Z M86.2109375,17.0546875 L78.1601562,17.0546875 C78.1601562,18.7109458 79.5117052,19.5390625 82.2148438,19.5390625 C83.4570375,19.5390625 84.6992125,19.4218762 85.9414062,19.1875 L85.9414062,21.6484375 C84.8554633,21.8828137 83.4570398,22 81.7460938,22 C77.2851339,22 75.0546875,19.9023647 75.0546875,15.7070312 C75.0546875,11.6991987 77.0976358,9.6953125 81.1835938,9.6953125 C85.2617391,9.6953125 86.9375036,12.148413 86.2109375,17.0546875 L86.2109375,17.0546875 Z M78.1601562,14.78125 L83.2929688,14.78125 C83.4023443,13.0156162 82.58204,12.1328125 80.8320312,12.1328125 C79.191398,12.1328125 78.300782,13.0156162 78.1601562,14.78125 L78.1601562,14.78125 Z M88.5429688,22 L88.5429688,9.6953125 L90.9453125,9.6953125 L91.3320312,11.265625 C92.4101616,10.2187448 93.5507752,9.6953125 94.7539062,9.6953125 L94.7539062,12.203125 C93.5976505,12.203125 92.5625046,12.7226511 91.6484375,13.7617188 L91.6484375,22 L88.5429688,22 Z M99.6171875,18.7890625 C100.468754,19.2109396 101.417964,19.421875 102.464844,19.421875 C104.394541,19.421875 105.359375,18.1211068 105.359375,15.5195312 C105.359375,13.3085827 104.257824,12.203125 102.054688,12.203125 C101.01562,12.203125 100.203128,12.257812 99.6171875,12.3671875 L99.6171875,18.7890625 Z M96.5117188,10.1992188 C98.1445394,9.86327957 99.9492089,9.6953125 101.925781,9.6953125 C106.26174,9.6953125 108.429688,11.6445118 108.429688,15.5429688 C108.429688,19.8476778 106.445332,22 102.476562,22 C101.492183,22 100.539067,21.8046895 99.6171875,21.4140625 L99.6171875,26.453125 L96.5117188,26.453125 L96.5117188,10.1992188 Z M120.992188,17.0546875 L112.941406,17.0546875 C112.941406,18.7109458 114.292955,19.5390625 116.996094,19.5390625 C118.238287,19.5390625 119.480463,19.4218762 120.722656,19.1875 L120.722656,21.6484375 C119.636713,21.8828137 118.23829,22 116.527344,22 C112.066384,22 109.835938,19.9023647 109.835938,15.7070312 C109.835938,11.6991987 111.878886,9.6953125 115.964844,9.6953125 C120.042989,9.6953125 121.718754,12.148413 120.992188,17.0546875 L120.992188,17.0546875 Z M112.941406,14.78125 L118.074219,14.78125 C118.183594,13.0156162 117.36329,12.1328125 115.613281,12.1328125 C113.972648,12.1328125 113.082032,13.0156162 112.941406,14.78125 L112.941406,14.78125 Z M123.324219,22 L123.324219,9.6953125 L125.726562,9.6953125 L126.113281,11.265625 C127.605476,10.2187448 129.105461,9.6953125 130.613281,9.6953125 C133.449233,9.6953125 134.867188,11.222641 134.867188,14.2773438 L134.867188,22 L131.761719,22 L131.761719,14.2421875 C131.761719,12.8828057 131.085944,12.203125 129.734375,12.203125 C128.648432,12.203125 127.546881,12.7226511 126.429688,13.7617188 L126.429688,22 L123.324219,22 Z M137.796875,7.703125 L140.09375,7.703125 L140.5625,9.6953125 L143.421875,9.6953125 L143.421875,12.15625 L140.902344,12.15625 L140.902344,17.8164062 C140.902344,18.9648495 141.398433,19.5390625 142.390625,19.5390625 L143.421875,19.5390625 L143.421875,22 L140.890625,22 C138.828115,22 137.796875,20.8945423 137.796875,18.6835938 L137.796875,7.703125 Z M166.121094,5.2421875 L158.773438,22 L155.433594,22 L148.402344,5.2421875 L152.09375,5.2421875 L157.285156,18.0742188 L162.464844,5.2421875 L166.121094,5.2421875 Z M167.878906,22 L167.878906,5.2421875 L175.730469,5.2421875 C178.917985,5.2421875 180.511719,6.66014207 180.511719,9.49609375 C180.511719,12.8320479 178.210961,14.8593714 173.609375,15.578125 L173.164062,12.8125 C175.898451,12.304685 177.265625,11.230477 177.265625,9.58984375 C177.265625,8.51171336 176.687506,7.97265625 175.53125,7.97265625 L170.984375,7.97265625 L170.984375,22 L167.878906,22 Z M182.445312,22 L182.445312,5.2421875 L185.550781,5.2421875 L194.867188,17.21875 L194.867188,5.2421875 L197.855469,5.2421875 L197.855469,22 L194.75,22 L185.433594,9.765625 L185.433594,22 L182.445312,22 Z" id="Serpent-VPN" fill="#333333"></path>
                        <g id="Group-12">
                            <ellipse id="Oval-2" fill="#F8A91C" cx="27.0584463" cy="14.6574435" rx="11.6865672" ry="11.6805556"></ellipse>
                            <path d="M49.1632941,11.927718 C49.1632941,11.927718 41.4405378,0 26.8662857,0 C12.2992941,0 4.57532773,11.927718 4.57532773,11.927718 C2.99616807,13.5352449 0,14.5011947 0,14.5011947 C0,14.5011947 2.99616807,15.4617682 4.57532773,17.0704898 C4.57532773,17.0704898 12.2992941,29 26.8662857,29 C41.4405378,29 49.1632941,17.0704898 49.1632941,17.0704898 C50.7418487,15.4617682 54,14.5011947 54,14.5011947 C54,14.5011947 50.7424538,13.5352449 49.1632941,11.927718 M26.9394958,23.0292712 C21.8002689,23.0292712 17.6327395,19.2180406 17.6327395,14.5125448 C17.6327395,9.81362007 21.8008739,5.99522103 26.9394958,5.99522103 C32.0817479,5.99522103 36.2529076,9.81421744 36.2529076,14.5125448 C36.2529076,19.2180406 32.0817479,23.0292712 26.9394958,23.0292712" id="Shape" fill="#373737"></path>
                            <ellipse id="Oval" fill="#373737" cx="27" cy="14.5" rx="1.20895522" ry="8.05555556"></ellipse>
                        </g>
                    </g>
                </g>
            </g>
        </g>
    </g>
</svg>