<?xml version="1.0" encoding="UTF-8" standalone="no"?>
<svg width="256px" height="256px" viewBox="0 0 256 256" version="1.1" xmlns="http://www.w3.org/2000/svg" xmlns:xlink="http://www.w3.org/1999/xlink">
    <!-- Generator: Sketch 3.7.2 (28276) - http://www.bohemiancoding.com/sketch -->
    <title>logo_cloud</title>
    <desc>Created with Sketch.</desc>
    <defs>
        <path d="M32.0330769,64.2905774 C14.343,64.2905774 0,78.6570753 0,96.3748745 C0,101.084724 1.01553846,105.550067 2.83607692,109.577674 C7.861,120.711075 19.04,128.460251 32.0330769,128.460251 L160.166462,128.460251 C183.753769,128.460251 202.877769,109.30564 202.877769,85.6802887 C202.877769,68.3295188 192.560308,53.4022218 177.735385,46.6909833 C172.372308,44.2631925 166.429308,42.8997866 160.166462,42.8997866 C158.954923,42.8997866 157.756308,42.9499833 156.570077,43.0492971 C150.757385,26.4617322 138.327538,12.9949958 122.455308,5.80823849 C114.411231,2.16709205 105.495385,0.121443515 96.0997692,0.121443515 C60.7136923,0.121443515 32.0330769,28.8533598 32.0330769,64.2905774 L32.0330769,64.2905774 Z" id="path-1"></path>
        <path d="M125.440538,26.8087908 C125.440538,62.2460084 96.7599231,90.9773849 61.3743846,90.9773849 C51.9739231,90.9773849 43.0596923,88.9355146 35.0134615,85.29059 C36.3003846,88.1404644 37.7886923,90.8802301 39.4600769,93.4899163 C36.7984615,97.2438703 33.3517692,100.399782 29.3590769,102.716925 C24.6292308,105.45777 19.159,107.019803 13.3242308,107.019803 C8.62776923,107.019803 4.16446154,105.999678 0.143769231,104.180184 C5.16869231,115.313586 16.3476923,123.062762 29.3407692,123.062762 L157.474154,123.062762 C181.061462,123.062762 200.185462,103.908151 200.185462,80.2827992 C200.185462,62.9320293 189.868,48.0047322 175.043077,41.2934937 C176.256231,43.978205 177.202846,46.8086485 177.846308,49.7524393 C178.489769,52.6967699 178.829538,55.7544477 178.829538,58.8930879 C178.829538,80.7081213 162.523308,98.7109079 141.454385,101.342184 C151.424538,90.0295858 157.474154,75.1686778 157.474154,58.8930879 C157.474154,32.8647741 141.995538,10.4776067 119.763,0.410748954 C123.403,8.46272385 125.440538,17.3928703 125.440538,26.8087908 L125.440538,26.8087908 Z" id="path-3"></path>
    </defs>
    <g id="Page-1" stroke="none" stroke-width="1" fill="none" fill-rule="evenodd">
        <g id="GF_frontend_candidate_wide" transform="translate(-800.000000, -155.000000)">
            <g id="Group-2" transform="translate(130.000000, 155.000000)">
                <g id="logo_cloud" transform="translate(670.000000, 0.000000)">
                    <path d="M256,128 C256,198.691429 198.688,256 128,256 C57.304,256 0,198.691429 0,128 C0,57.304 57.304,0 128,0 C198.688,0 256,57.304 256,128" id="Fill-1" fill="#43B1E3"></path>
                    <g id="Page-1" transform="translate(27.000000, 52.000000)">
                        <g id="Group-3" transform="translate(0.000000, 0.418305)">
                            <mask id="mask-2" fill="white">
                                <use xlink:href="#path-1"></use>
                            </mask>
                            <g id="Clip-2"></g>
                            <polygon id="Fill-1" fill="#FFFFFF" mask="url(#mask-2)" points="-2.69230769 131.158996 205.570077 131.158996 205.570077 -2.57730126 -2.69230769 -2.57730126"></polygon>
                        </g>
                        <g id="Group-6" transform="translate(2.692308, 5.815795)">
                            <mask id="mask-4" fill="white">
                                <use xlink:href="#path-3"></use>
                            </mask>
                            <g id="Clip-5"></g>
                            <polygon id="Fill-4" fill="#F0F0F0" mask="url(#mask-4)" points="-2.54853846 125.761506 202.877769 125.761506 202.877769 -2.28745607 -2.54853846 -2.28745607"></polygon>
                        </g>
                        <g id="Group-12" transform="translate(47.000000, 50.000000)">
                            <ellipse id="Oval-2" fill="#F8A91C" cx="54.9648781" cy="29.7742371" rx="23.73938" ry="23.7271684"></ellipse>
                            <path d="M99.8673183,24.2292392 C99.8673183,24.2292392 84.1797819,0 54.5745348,0 C24.9840362,0 9.2940418,24.2292392 9.2940418,24.2292392 C6.08623314,27.4946713 0,29.4568429 0,29.4568429 C0,29.4568429 6.08623314,31.4080933 9.2940418,34.6759523 C9.2940418,34.6759523 24.9840362,58.9088319 54.5745348,58.9088319 C84.1797819,58.9088319 99.8673183,34.6759523 99.8673183,34.6759523 C103.073898,31.4080933 109.692308,29.4568429 109.692308,29.4568429 C109.692308,29.4568429 103.075127,27.4946713 99.8673183,24.2292392 M54.7232493,46.7802575 C44.2837371,46.7802575 35.818072,39.038356 35.818072,29.4798987 C35.818072,19.9347895 44.2849662,12.1783265 54.7232493,12.1783265 C65.1689067,12.1783265 73.6419461,19.936003 73.6419461,29.4798987 C73.6419461,39.038356 65.1689067,46.7802575 54.7232493,46.7802575" id="Shape" fill="#373737"></path>
                            <ellipse id="Oval" fill="#373737" cx="54.8461538" cy="29.454416" rx="2.45579793" ry="16.3635644"></ellipse>
                        </g>
                    </g>
                </g>
            </g>
        </g>
    </g>
</svg>