<?xml version="1.0" encoding="UTF-8" standalone="no"?>
<svg width="256px" height="256px" viewBox="0 0 256 256" version="1.1" xmlns="http://www.w3.org/2000/svg" xmlns:xlink="http://www.w3.org/1999/xlink">
    <!-- Generator: Sketch 3.7.2 (28276) - http://www.bohemiancoding.com/sketch -->
    <title>secure</title>
    <desc>Created with Sketch.</desc>
    <defs>
        <path d="M0.152,38.751322 L0.152,78.8314915 L9.602,78.8314915 L9.602,38.751322 C9.602,22.9002712 22.319,10.0088475 37.952,10.0088475 C53.5835,10.0088475 66.302,22.9002712 66.302,38.8011017 L66.302,78.8314915 L75.752,78.8314915 L75.752,38.751322 C75.752,17.5889322 58.8275,0.428525424 37.952,0.428525424 C17.078,0.428525424 0.152,17.5889322 0.152,38.751322 L0.152,38.751322 Z" id="path-1"></path>
        <path d="M0.702,48.8519492 L0.702,88.882339 L10.152,88.882339 L10.152,48.8021695 C10.152,27.6397797 27.078,10.4793729 47.952,10.4793729 C68.8275,10.4793729 85.752,27.6397797 85.752,48.8021695 L85.752,88.882339 L95.2035,88.882339 L95.2035,48.8021695 C95.2035,22.3872712 74.007,0.897542373 47.952,0.897542373 C21.897,0.897542373 0.702,22.3872712 0.702,48.8519492 L0.702,48.8519492 Z" id="path-3"></path>
        <path d="M0.209,26.9881186 C0.209,41.4000847 11.735,53.0877458 25.952,53.0877458 C40.175,53.0877458 51.6965,41.4000847 51.6965,26.9881186 C51.6965,12.5746441 40.175,0.888491525 25.952,0.888491525 C11.735,0.888491525 0.209,12.5746441 0.209,26.9881186 L0.209,26.9881186 Z" id="path-5"></path>
        <path d="M0.9645,30.0050678 C0.9645,46.2075932 13.9695,59.391661 29.952,59.391661 C45.9345,59.391661 58.9395,46.2075932 58.9395,30.0050678 C58.9395,13.7995254 45.9345,0.618474576 29.952,0.618474576 C13.9695,0.618474576 0.9645,13.7995254 0.9645,30.0050678 L0.9645,30.0050678 Z M8.2125,30.0050678 C8.2125,17.8331864 17.946,7.96323729 29.952,7.96323729 C41.9625,7.96323729 51.6945,17.8331864 51.6945,30.0050678 C51.6945,42.1769492 41.9625,52.0453898 29.952,52.0453898 C17.946,52.0453898 8.2125,42.1769492 8.2125,30.0050678 L8.2125,30.0050678 Z" id="path-7"></path>
    </defs>
    <g id="Page-1" stroke="none" stroke-width="1" fill="none" fill-rule="evenodd">
        <g id="GF_frontend_candidate_wide" transform="translate(-800.000000, -790.000000)">
            <g id="Group-4" transform="translate(130.000000, 790.000000)">
                <g id="secure" transform="translate(670.000000, 0.000000)">
                    <path d="M256,128 C256,198.691429 198.688,256 128,256 C57.304,256 0,198.691429 0,128 C0,57.304 57.304,0 128,0 C198.688,0 256,57.304 256,128" id="Fill-1" fill="#43B1E3"></path>
                    <g id="Page-1" transform="translate(66.000000, 33.000000)">
                        <g id="Group-3" transform="translate(25.000000, 10.660271)">
                            <mask id="mask-2" fill="white">
                                <use xlink:href="#path-1"></use>
                            </mask>
                            <g id="Clip-2"></g>
                            <polygon id="Fill-1" fill="#D1D1D1" mask="url(#mask-2)" points="-7.3465 86.3738644 83.2535 86.3738644 83.2535 -7.11535593 -7.3465 -7.11535593"></polygon>
                        </g>
                        <g id="Group-6" transform="translate(15.000000, 0.609424)">
                            <mask id="mask-4" fill="white">
                                <use xlink:href="#path-3"></use>
                            </mask>
                            <g id="Clip-5"></g>
                            <polygon id="Fill-4" fill="#EFEFEF" mask="url(#mask-4)" points="-6.7965 96.4247119 102.7035 96.4247119 102.7035 -6.64332203 -6.7965 -6.64332203"></polygon>
                        </g>
                        <polygon id="Fill-7" fill="#EEB845" points="0 177.100949 125.9535 177.100949 125.9535 86.0871356 0 86.0871356"></polygon>
                        <polygon id="Fill-8" fill="#FFC64A" points="30.2655 177.100949 95.64 177.100949 95.64 86.0871356 30.2655 86.0871356"></polygon>
                        <g id="Group-11" transform="translate(37.000000, 106.202644)">
                            <mask id="mask-6" fill="white">
                                <use xlink:href="#path-5"></use>
                            </mask>
                            <g id="Clip-10"></g>
                            <polygon id="Fill-9" fill="#FFFFFF" mask="url(#mask-6)" points="-7.2895 60.6301186 59.198 60.6301186 59.198 -6.65388136 -7.2895 -6.65388136"></polygon>
                        </g>
                        <polygon id="Fill-12" fill="#404040" points="59.8029 137.319156 54.6159 132.062122 52.3884 134.3188 59.8029 141.83402 73.5144 127.931919 71.2884 125.675241"></polygon>
                        <g id="Group-15" transform="translate(33.000000, 103.185695)">
                            <mask id="mask-8" fill="white">
                                <use xlink:href="#path-7"></use>
                            </mask>
                            <g id="Clip-14"></g>
                            <polygon id="Fill-13" fill="#EEB845" mask="url(#mask-8)" points="-6.534 66.9340339 66.441 66.9340339 66.441 -6.92540678 -6.534 -6.92540678"></polygon>
                        </g>
                    </g>
                </g>
            </g>
        </g>
    </g>
</svg>