<?xml version="1.0" encoding="UTF-8" standalone="no"?>
<svg width="24px" height="24px" viewBox="0 0 24 24" version="1.1" xmlns="http://www.w3.org/2000/svg" xmlns:xlink="http://www.w3.org/1999/xlink">
    <!-- Generator: Sketch 3.7.2 (28276) - http://www.bohemiancoding.com/sketch -->
    <title>twitter</title>
    <desc>Created with Sketch.</desc>
    <defs></defs>
    <g id="Page-1" stroke="none" stroke-width="1" fill="none" fill-rule="evenodd">
        <g id="GF_frontend_candidate_wide" transform="translate(-957.000000, -1673.000000)">
            <g id="twitter" transform="translate(957.000000, 1673.000000)">
                <g id="Group-14">
                    <path d="M21.5,0 L2.5,0 C1.125,0 0,1.125 0,2.5 L0,21.5 C0,22.875 1.125,24 2.5,24 L21.5,24 C22.875,24 24,22.875 24,21.5 L24,2.5 C24,1.125 22.875,0 21.5,0" id="Fill-1" fill="#25AAE1"></path>
                    <path d="M18.3623201,9.2371831 C18.368272,9.37771127 18.3719346,9.51961268 18.3719346,9.66197183 C18.3719346,13.9995775 15.0700203,19 9.03161931,19 C7.17738289,19 5.45271411,18.4575704 4,17.5246831 C4.25684608,17.5553521 4.51827052,17.5713732 4.78335766,17.5713732 C6.32077145,17.5713732 7.73640084,17.0467958 8.85947292,16.167007 C7.42278307,16.1409155 6.21134861,15.1915493 5.79334421,13.8878873 C5.99387644,13.9272535 6.19990271,13.9451056 6.41096518,13.9451056 C6.71039002,13.9451056 7.0002003,13.9039085 7.27581767,13.830669 C5.77365725,13.5303873 4.64234412,12.2033803 4.64234412,10.6122535 C4.64234412,10.5980634 4.64234412,10.586162 4.64280196,10.5719718 C5.08507168,10.8168662 5.59098063,10.9660915 6.12939594,10.9807394 C5.24897702,10.392993 4.66935645,9.38823944 4.66935645,8.25028169 C4.66935645,7.64834507 4.83097262,7.08440141 5.11391536,6.60056338 C6.73236615,8.58535211 9.15111454,9.89267606 11.8802758,10.0290845 C11.8235042,9.78876761 11.7946605,9.53838028 11.7946605,9.28021127 C11.7946605,7.46982394 13.2647724,6 15.0773457,6 C16.0218617,6 16.8748104,6.39778169 17.474118,7.03588028 C18.2208487,6.88848592 18.924085,6.61566901 19.5577303,6.23848592 C19.3127879,7.00658451 18.7922282,7.64834507 18.1146307,8.0543662 C18.778951,7.97746479 19.4112227,7.8003169 20,7.53848592 C19.5591038,8.19580986 19.0032907,8.77302817 18.3623201,9.2371831" id="Path" fill="#FFFFFF"></path>
                </g>
            </g>
        </g>
    </g>
</svg>