<?xml version="1.0" encoding="UTF-8" standalone="no"?>
<svg width="24px" height="24px" viewBox="0 0 24 24" version="1.1" xmlns="http://www.w3.org/2000/svg" xmlns:xlink="http://www.w3.org/1999/xlink">
    <!-- Generator: Sketch 3.7.2 (28276) - http://www.bohemiancoding.com/sketch -->
    <title>facebook</title>
    <desc>Created with Sketch.</desc>
    <defs></defs>
    <g id="Page-1" stroke="none" stroke-width="1" fill="none" fill-rule="evenodd">
        <g id="GF_frontend_candidate_wide" transform="translate(-919.000000, -1673.000000)">
            <g id="facebook" transform="translate(919.000000, 1673.000000)">
                <rect id="Rectangle-26" fill="#FFFFFF" x="9" y="4" width="11" height="20"></rect>
                <path d="M24,21.5 C24,22.875 22.875,24 21.5,24 L16,24 L16,14 L19,14 L19,11 L16,11 L16.005,9.327 C16.005,8.427 16.3065,8 17.6005,8 L19,8 L19,4 L15,4 C12,4 12,7 12,8 L12,11 L10,11 L10,14 L12,14 L12,24 L2.5,24 C1.125,24 0,22.875 0,21.5 L0,2.5 C0,1.125 1.125,0 2.5,0 L21.5,0 C22.875,0 24,1.125 24,2.5 L24,21.5 Z" id="Page-1" fill="#31689B"></path>
            </g>
        </g>
    </g>
</svg>