<?xml version="1.0" encoding="UTF-8" standalone="no"?>
<svg width="24px" height="24px" viewBox="0 0 24 24" version="1.1" xmlns="http://www.w3.org/2000/svg" xmlns:xlink="http://www.w3.org/1999/xlink">
    <!-- Generator: Sketch 3.7.2 (28276) - http://www.bohemiancoding.com/sketch -->
    <title>linkedin</title>
    <desc>Created with Sketch.</desc>
    <defs></defs>
    <g id="Page-1" stroke="none" stroke-width="1" fill="none" fill-rule="evenodd">
        <g id="GF_frontend_candidate_wide" transform="translate(-995.000000, -1673.000000)">
            <g id="linkedin" transform="translate(995.000000, 1673.000000)">
                <path d="M21.5,0 L2.5,0 C1.125,0 0,1.125 0,2.5 L0,21.5 C0,22.875 1.125,24 2.5,24 L21.5,24 C22.875,24 24,22.875 24,21.5 L24,2.5 C24,1.125 22.875,0 21.5,0 L21.5,0 Z" id="Page-1" fill="#1D6DA1"></path>
                <path d="M8,19 L7.87,19 L5,19 L5,9 L8,9 L8,19 Z M6.5,7.6405 C5.49,7.6405 4.672,6.8225 4.672,5.8125 C4.672,4.8025 5.49,3.9845 6.5,3.9845 C7.51,3.9845 8.328,4.8025 8.328,5.8125 C8.328,6.8225 7.51,7.6405 6.5,7.6405 Z M19,19 L16,19 L16,13.707 C16,12.458 15.468,11.6065 14.3505,11.6065 C13.497,11.6065 13.324,12.1815 13.1015,12.7355 C13.0195,12.9345 13,13.211 13,13.4885 L13,19 L10,19 C10,19 10.041,9.872 10,9 L13,9 L13,10.703 C13,10.0715 13.708,8.969 16.0625,8.969 C18.417,8.969 19,9.043 19,12.3495 L19,19 Z" id="Combined-Shape" fill="#FFFFFF"></path>
            </g>
        </g>
    </g>
</svg>